<svg width="160" height="160" viewBox="0 0 160 160" fill="none" xmlns="http://www.w3.org/2000/svg">
  <title>AnsarEats location marker logo</title>
  <desc>Rounded app badge with a location marker formed by a fork on the left and a knife on the right.</desc>
  <defs>
    <linearGradient id="badge" x1="24" y1="22" x2="136" y2="140" gradientUnits="userSpaceOnUse">
      <stop stop-color="#F7FFF9"/>
      <stop offset="1" stop-color="#DDF8E9"/>
    </linearGradient>
    <linearGradient id="utensils" x1="45" y1="30" x2="112" y2="121" gradientUnits="userSpaceOnUse">
      <stop stop-color="#22C55E"/>
      <stop offset="1" stop-color="#059669"/>
    </linearGradient>
    <filter id="shadow" x="10" y="12" width="140" height="140" filterUnits="userSpaceOnUse" color-interpolation-filters="sRGB">
      <feFlood flood-opacity="0" result="BackgroundImageFix"/>
      <feColorMatrix in="SourceAlpha" type="matrix" values="0 0 0 0 0 0 0 0 0 0 0 0 0 0 0 0 0 0 127 0" result="hardAlpha"/>
      <feOffset dy="6"/>
      <feGaussianBlur stdDeviation="6"/>
      <feComposite in2="hardAlpha" operator="out"/>
      <feColorMatrix type="matrix" values="0 0 0 0 0.0353 0 0 0 0 0.3922 0 0 0 0 0.2392 0 0 0 0.18 0"/>
      <feBlend mode="normal" in2="BackgroundImageFix" result="effect1_dropShadow_1_1"/>
      <feBlend mode="normal" in="SourceGraphic" in2="effect1_dropShadow_1_1" result="shape"/>
    </filter>
  </defs>
  <g filter="url(#shadow)">
    <rect x="20" y="20" width="120" height="120" rx="34" fill="url(#badge)"/>
    <path d="M42 45C49 36 63 30 81 30C98 30 112 35 120 43" stroke="white" stroke-opacity="0.8" stroke-width="8" stroke-linecap="round"/>
  </g>
  <g fill="url(#utensils)">
    <path d="M53 34H57V55C57 56.6569 58.3431 58 60 58C61.6569 58 63 56.6569 63 55V34H67V55C67 56.6569 68.3431 58 70 58C71.6569 58 73 56.6569 73 55V34H77V71C77 78.5485 74.2741 85.8438 69.3234 91.5435L80 124L56.3786 94.4714C49.7225 86.1512 46.0968 75.8161 46.0968 65.1604V40.9032C46.0968 37.0918 49.1886 34 53 34Z"/>
    <path d="M91 34H101.451C107.831 34 113 39.1691 113 45.5484V65.1604C113 75.8161 109.374 86.1512 102.718 94.4714L80 124L90.6766 91.5435C95.7259 85.8438 98.4516 78.5485 98.4516 71V41H91V34Z"/>
    <path d="M79 41C79 38.7909 80.7909 37 83 37C85.2091 37 87 38.7909 87 41V79C87 81.2091 85.2091 83 83 83C80.7909 83 79 81.2091 79 79V41Z"/>
  </g>
  <circle cx="80" cy="78" r="11" fill="#F7FFF9"/>
</svg>
